<?xml version="1.0" encoding="UTF-8"?>
<svg id="Layer_1" xmlns="http://www.w3.org/2000/svg" version="1.1" viewBox="0 0 24 24">
  <!-- Generator: Adobe Illustrator 29.8.1, SVG Export Plug-In . SVG Version: 2.1.1 Build 2)  -->
  <defs>
    <style>
      .st0 {
        fill: #ffffff;
      }
    </style>
  </defs>
  <path class="st0" d="M9.25,22l-.4-3.2c-.22-.08-.42-.18-.61-.3s-.38-.24-.56-.38l-2.98,1.25-2.75-4.75,2.58-1.95c-.02-.12-.03-.23-.03-.34v-.68c0-.11,0-.22.03-.34l-2.58-1.95,2.75-4.75,2.98,1.25c.18-.13.38-.26.58-.38s.4-.22.6-.3l.4-3.2h5.5l.4,3.2c.22.08.42.18.61.3s.38.24.56.38l2.98-1.25,2.75,4.75-2.58,1.95c.02.12.03.23.03.34v.68c0,.11-.02.22-.05.34l2.58,1.95-2.75,4.75-2.95-1.25c-.18.13-.38.26-.58.38s-.4.22-.6.3l-.4,3.2h-5.5ZM11,20h1.98l.35-2.65c.52-.13,1-.33,1.44-.59s.85-.57,1.21-.94l2.48,1.03.98-1.7-2.15-1.63c.08-.23.14-.48.18-.74s.05-.52.05-.79-.02-.53-.05-.79c-.03-.26-.09-.5-.18-.74l2.15-1.63-.98-1.7-2.48,1.05c-.37-.38-.77-.7-1.21-.96s-.92-.45-1.44-.59l-.33-2.65h-1.98l-.35,2.65c-.52.13-1,.33-1.44.59s-.85.57-1.21.94l-2.48-1.03-.98,1.7,2.15,1.6c-.08.25-.14.5-.18.75s-.05.52-.05.8c0,.27.02.53.05.78s.09.5.18.75l-2.15,1.63.98,1.7,2.48-1.05c.37.38.77.7,1.21.96s.92.45,1.44.59l.33,2.65ZM12.05,15.5c.97,0,1.79-.34,2.48-1.03s1.03-1.51,1.03-2.48-.34-1.79-1.03-2.48-1.51-1.03-2.48-1.03-1.81.34-2.49,1.03-1.01,1.51-1.01,2.48.34,1.79,1.01,2.48,1.5,1.03,2.49,1.03Z"/>
</svg>